<svg width="847" height="730" viewBox="0 0 847 730" fill="none" xmlns="http://www.w3.org/2000/svg">
<path d="M938.78 -262.706C966.718 -285.449 973.569 -321.306 958.118 -350.395L997.153 -310.942L1086.97 -220.161L1086.97 -220.157L1087.79 -219.331L1087.8 -219.33L1088.61 -218.515C1088.61 -218.513 1088.61 -218.511 1088.61 -218.509C1136.99 -168.732 1131.9 -93.4109 1077.35 -49.2445C1077.18 -49.113 1077.03 -48.9843 1076.88 -48.8661L1076.88 -48.8645C1076.73 -48.7402 1076.59 -48.6271 1076.44 -48.5142C1076.27 -48.3808 1076.11 -48.2503 1075.96 -48.1301L1075.96 -48.126C1075.8 -48.0021 1075.66 -47.8887 1075.52 -47.7752L1075.51 -47.7707L1075.51 -47.7662C992.313 18.3897 902.009 90.1975 811.931 161.824L632.714 -19.3108C690.623 -65.3628 748.622 -111.482 804.762 -156.125C835.941 -180.918 866.547 -205.255 896.246 -228.872C896.417 -229.006 896.578 -229.137 896.725 -229.256C896.878 -229.38 897.017 -229.494 897.162 -229.607C897.334 -229.741 897.495 -229.872 897.644 -229.992L897.648 -229.996C897.801 -230.12 897.941 -230.233 898.086 -230.346L898.092 -230.351L898.098 -230.356C905.368 -236.142 912.583 -241.878 919.738 -247.566C925.641 -252.258 931.503 -256.917 937.32 -261.546C937.459 -261.653 937.588 -261.757 937.7 -261.848C937.819 -261.944 937.92 -262.026 938.027 -262.108L937.044 -263.185L938.027 -262.108C938.158 -262.208 938.284 -262.311 938.388 -262.396L938.426 -262.428C938.545 -262.525 938.635 -262.597 938.719 -262.659L938.75 -262.682L938.78 -262.706Z" stroke="#EBE8FC" stroke-width="3"/>
<path d="M768.696 196.225C759.716 203.365 750.75 210.492 741.806 217.603C703.199 248.296 664.994 278.669 627.784 308.263C627.614 308.396 627.455 308.525 627.308 308.644L627.306 308.646C627.153 308.77 627.013 308.883 626.868 308.997L627.86 310.067L626.867 308.997C626.764 309.078 626.665 309.157 626.569 309.234C626.504 309.286 626.442 309.337 626.381 309.386C626.295 309.457 626.213 309.523 626.132 309.588C626.069 309.639 626.007 309.688 625.944 309.737L625.938 309.742L625.932 309.746C593.348 335.68 561.51 360.99 530.842 385.368L525.858 389.331L437.051 299.569L437.048 299.566L436.224 298.738L435.411 297.922C435.409 297.92 435.407 297.918 435.405 297.916C387.024 248.139 392.118 172.818 446.665 128.652C446.831 128.521 446.988 128.394 447.133 128.276L447.138 128.273C447.291 128.149 447.431 128.035 447.576 127.922C447.75 127.787 447.913 127.654 448.062 127.532C448.215 127.408 448.355 127.295 448.499 127.182L448.505 127.177L448.511 127.173C465.712 113.492 483.127 99.645 500.694 85.6761C529.957 62.4072 559.644 38.8006 589.481 15.0634L768.696 196.225Z" stroke="#EBE8FC" stroke-width="3"/>
<path d="M564.153 428.026C639.829 367.858 722.785 301.89 806.987 234.931L968.265 397.968L968.268 397.971L969.093 398.799L969.906 399.615C969.908 399.617 969.909 399.619 969.911 399.62C1018.29 449.398 1013.2 524.719 958.651 568.885C958.482 569.017 958.324 569.146 958.178 569.265C958.025 569.389 957.886 569.502 957.741 569.615C957.564 569.753 957.392 569.894 957.246 570.014C957.093 570.139 956.962 570.244 956.836 570.34L956.82 570.352L956.805 570.364C908.093 609.092 860.699 646.787 815.856 682.456L564.153 428.026Z" stroke="#EBE8FC" stroke-width="3"/>
<path d="M466.525 960.281C438.569 983.033 431.725 1018.95 447.24 1048.05L408.157 1008.55L318.343 917.766L318.34 917.763L317.515 916.935L316.703 916.119C316.701 916.117 316.699 916.115 316.697 916.113C268.316 866.336 273.411 791.015 327.957 746.849C328.124 746.718 328.281 746.59 328.426 746.473L328.431 746.469C328.583 746.345 328.723 746.232 328.868 746.119C329.024 745.996 329.177 745.872 329.311 745.762L329.362 745.72C329.516 745.595 329.646 745.489 329.773 745.394L329.788 745.382L329.803 745.37C412.996 679.214 503.302 607.407 593.379 535.781L772.577 716.903C682.518 788.515 592.232 860.307 509.056 926.45C508.887 926.582 508.727 926.711 508.581 926.83L508.578 926.833C508.425 926.957 508.286 927.07 508.141 927.183C507.971 927.316 507.81 927.446 507.663 927.565L507.655 927.572C507.502 927.696 507.363 927.809 507.218 927.922L507.212 927.927L507.206 927.932C499.927 933.725 492.703 939.468 485.538 945.163C479.645 949.848 473.792 954.501 467.983 959.122C467.845 959.229 467.717 959.332 467.605 959.423C467.486 959.519 467.383 959.602 467.277 959.684C467.203 959.74 467.133 959.796 467.067 959.849C467.003 959.899 466.943 959.948 466.887 959.993C466.818 960.049 466.755 960.1 466.693 960.149C466.649 960.185 466.605 960.219 466.56 960.254L466.542 960.267L466.525 960.281Z" stroke="#EBE8FC" stroke-width="3"/>
</svg>
