<svg width="47" height="48" viewBox="0 0 47 48" fill="none" xmlns="http://www.w3.org/2000/svg">
<rect width="46.6571" height="48" rx="8" fill="white"/>
<path fill-rule="evenodd" clip-rule="evenodd" d="M19.7623 12C20.4061 12.1805 20.7881 12.8423 20.6226 13.4902C20.6212 13.4946 20.6202 13.4993 20.6188 13.5041C20.6175 13.5088 20.6165 13.5132 20.6151 13.518C20.5483 13.7676 20.4801 14.0214 20.4112 14.2788C20.4095 14.2849 20.4082 14.2907 20.4065 14.2968C20.4048 14.3029 20.4034 14.3087 20.4017 14.3148C19.9675 15.9352 19.496 17.6947 19.0259 19.4495L22.9892 20.5112C23.4594 18.7568 23.9309 16.9973 24.3651 15.3769C24.3668 15.3708 24.3681 15.365 24.3698 15.3589C24.3715 15.3528 24.3729 15.347 24.3746 15.3409C24.6544 14.2581 24.0147 13.1499 22.937 12.8511L22.919 12.8463L22.901 12.8416L20.9373 12.3155L19.7623 12.0007V12Z" fill="#351AE5"/>
<path fill-rule="evenodd" clip-rule="evenodd" d="M18.8136 20.2415C18.5636 21.1754 18.3153 22.1014 18.0752 22.9979C18.0735 23.004 18.0721 23.0098 18.0704 23.0159C18.0687 23.022 18.0674 23.0278 18.0657 23.0339C17.7858 24.1167 18.4256 25.2249 19.5033 25.5237L19.5212 25.5285L19.5392 25.5332L21.5029 26.0593C21.6722 25.4281 21.8486 24.7703 22.029 24.0956C22.0307 24.0895 22.0321 24.0838 22.0338 24.0777C22.0355 24.0715 22.0368 24.0658 22.0385 24.0597C22.2787 23.1631 22.527 22.2371 22.7774 21.3032L18.814 20.2411L18.8136 20.2415Z" fill="#351AE5"/>
<path fill-rule="evenodd" clip-rule="evenodd" d="M23.5696 21.5157C23.1276 23.1653 22.692 24.7908 22.2952 26.2714L27.8437 27.7582C28.0784 26.8817 28.3267 25.9546 28.5821 25.0018C28.5838 24.996 28.5852 24.9899 28.5869 24.9838C28.5886 24.9777 28.5899 24.9719 28.5916 24.9658C28.8715 23.883 28.2317 22.7748 27.1541 22.476L27.1361 22.4712L27.1181 22.4665L23.5689 21.5153L23.5696 21.5157Z" fill="#351AE5"/>
<path fill-rule="evenodd" clip-rule="evenodd" d="M26.8951 36C26.2513 35.8199 25.8694 35.1577 26.0349 34.5102C26.0363 34.5054 26.0373 34.501 26.0386 34.4963C26.04 34.4915 26.041 34.4871 26.0424 34.4824C26.1092 34.2327 26.1774 33.979 26.2462 33.7215C26.2479 33.7154 26.2493 33.7096 26.251 33.7035C26.2527 33.6974 26.254 33.6917 26.2557 33.6856C26.6899 32.0652 27.1614 30.3056 27.6316 28.5512L23.6686 27.4895C23.1984 29.2439 22.7269 31.0034 22.2927 32.6238C22.291 32.6296 22.2897 32.6357 22.288 32.6418C22.2863 32.6479 22.2849 32.6537 22.2832 32.6598C22.0034 33.7426 22.6431 34.8508 23.7208 35.1496L23.7388 35.1544L23.7567 35.1591L25.7205 35.6852L26.8955 36H26.8951Z" fill="#351AE5"/>
</svg>
